<svg id="Layer_1" data-name="Layer 1" xmlns="http://www.w3.org/2000/svg" width="35" height="40" viewBox="0 0 35 40"><title>arrow</title><path d="M10.6205,21.2156l-.0242-.0053h10.373l-3.2608,3.2681a.8564.8564,0,0,0,0,1.204l.5073.5076a.8487.8487,0,0,0,1.1981.0006l5.59-5.5892a.8547.8547,0,0,0,0-1.2022l-5.59-5.59a.8495.8495,0,0,0-1.1981,0l-.5073.5076a.84.84,0,0,0-.2473.5989.8146.8146,0,0,0,.2473.5877L21.0061,18.79H10.6089a.8785.8785,0,0,0-.86.87v.718A.8615.8615,0,0,0,10.6205,21.2156Z" fill="#fff"/></svg>