<?xml version="1.0" encoding="utf-8"?>
<!-- Generator: Adobe Illustrator 22.0.1, SVG Export Plug-In . SVG Version: 6.00 Build 0)  -->
<svg version="1.1" id="Layer_1" xmlns="http://www.w3.org/2000/svg" xmlns:xlink="http://www.w3.org/1999/xlink" x="0px" y="0px"
	 viewBox="0 0 45 45" style="enable-background:new 0 0 45 45;" xml:space="preserve">
<style type="text/css">
	.st0{fill:#FFFFFF;}
</style>
<path class="st0" d="M22.5,11.7c3.5,0,3.9,0,5.3,0.1c3.6,0.2,5.2,1.9,5.4,5.4c0.1,1.4,0.1,1.8,0.1,5.3s0,3.9-0.1,5.3
	c-0.2,3.5-1.8,5.2-5.4,5.4c-1.4,0.1-1.8,0.1-5.3,0.1s-3.9,0-5.3-0.1c-3.6-0.2-5.2-1.9-5.4-5.4c-0.1-1.4-0.1-1.8-0.1-5.3
	s0-3.9,0.1-5.3c0.2-3.5,1.8-5.2,5.4-5.4C18.6,11.7,19,11.7,22.5,11.7z M22.5,9.3c-3.6,0-4,0-5.4,0.1c-4.8,0.2-7.4,2.9-7.7,7.7
	c-0.1,1.4-0.1,1.9-0.1,5.4s0,4,0.1,5.4c0.2,4.8,2.9,7.4,7.7,7.7c1.4,0.1,1.9,0.1,5.4,0.1s4,0,5.4-0.1c4.8-0.2,7.4-2.9,7.7-7.7
	c0.1-1.4,0.1-1.9,0.1-5.4s0-4-0.1-5.4c-0.2-4.8-2.9-7.4-7.7-7.7C26.5,9.3,26.1,9.3,22.5,9.3z M22.5,15.7c-3.7,0-6.8,3-6.8,6.8
	s3,6.8,6.8,6.8s6.8-3,6.8-6.8C29.3,18.8,26.2,15.7,22.5,15.7z M22.5,26.9c-2.4,0-4.4-2-4.4-4.4s2-4.4,4.4-4.4s4.4,2,4.4,4.4
	S24.9,26.9,22.5,26.9z M29.5,13.9c-0.9,0-1.6,0.7-1.6,1.6c0,0.9,0.7,1.6,1.6,1.6s1.6-0.7,1.6-1.6S30.4,13.9,29.5,13.9z"/>
</svg>
