<?xml version="1.0" encoding="utf-8"?>
<!-- Generator: Adobe Illustrator 22.0.1, SVG Export Plug-In . SVG Version: 6.00 Build 0)  -->
<svg version="1.1" id="Layer_1" xmlns="http://www.w3.org/2000/svg" xmlns:xlink="http://www.w3.org/1999/xlink" x="0px" y="0px"
	 viewBox="0 0 45 45" style="enable-background:new 0 0 45 45;" xml:space="preserve">
<style type="text/css">
	.st0{fill:#FFFFFF;}
</style>
<g>
	<path class="st0" d="M27.7,42v-5.4c0-1.8-0.6-3-1.3-3.6c4.4-0.5,9-2.1,9-9.7c0-2.1-0.8-3.9-2-5.3c0.2-0.5,0.9-2.5-0.2-5.2
		c0,0-1.6-0.5-5.4,2c-1.6-0.4-3.2-0.7-4.9-0.7c-1.7,0-3.3,0.2-4.9,0.7c-3.7-2.5-5.4-2-5.4-2c-1.1,2.7-0.4,4.7-0.2,5.2
		c-1.3,1.4-2,3.1-2,5.3c0,7.5,4.6,9.2,8.9,9.7c-0.6,0.5-1.1,1.4-1.2,2.6c-1.1,0.5-4,1.4-5.7-1.6c0,0-1-1.9-3-2c0,0-1.9,0-0.1,1.2
		c0,0,1.3,0.6,2.2,2.9c0,0,1.1,3.5,6.6,2.3V42c0,0.5-0.2,1-1,1c1.8,0.6,3.8,0.9,5.8,0.9c2,0,4-0.3,5.8-0.9
		C27.9,42.9,27.7,42.4,27.7,42z"/>
</g>
</svg>
