<svg id="Isolation_Mode" data-name="Isolation Mode" xmlns="http://www.w3.org/2000/svg" width="95.3333" height="68" viewBox="0 0 95.3333 68"><title>Artboard 1</title><path d="M15.5781,19.0416l-.1661-1.5794a1.7136,1.7136,0,0,1,.54-1.2466,2.4967,2.4967,0,0,1,1.8086-.54q1.267,0,7.875,3.3663T38.498,25.7737Q44.7514,29.14,45.5419,29.14q4.2378-.0417,11.6358-3.7817,3.0747-1.58,6.1093-3.0752,7.3551-3.74,11.7188-3.8232l1.4551,2.2856h-.084q-.7472,1.6616-7.73,4.9246a152.1063,152.1063,0,0,1-14.1709,5.7763q-7.1908,2.5141-9.1016,2.5975Z" fill="#f4bc43"/><path d="M15.5781,40.7935l-.1661-1.5793a1.7133,1.7133,0,0,1,.54-1.2466,2.4963,2.4963,0,0,1,1.8086-.54q1.267,0,7.875,3.3662T38.498,47.5257q6.2534,3.3661,7.0439,3.3662Q49.78,50.85,57.1777,47.11q3.0747-1.58,6.1093-3.0752,7.3551-3.74,11.7188-3.8233l1.4551,2.2857h-.084q-.7472,1.6614-7.73,4.9245a152.08,152.08,0,0,1-14.1709,5.7764q-7.1908,2.514-9.1016,2.5974Z" fill="#f4bc43"/></svg>