<svg id="Isolation_Mode" data-name="Isolation Mode" xmlns="http://www.w3.org/2000/svg" width="400" height="267.3333" viewBox="0 0 400 267.3333"><title>Artboard 1</title><path d="M117.281,147.3828c.4412,4.9955,2.1969,10.5853,2.1969,15.5821,0,2.3486-1.3172,4.4121-1.3172,6.7637,0,3.2344,2.1965,6.4689,2.1965,9.7006.8792,13.5309-1.7518,21.4664,14.9364,30.8755,3.0743,2.3512,9.666,4.704,14.9372,4.704,11.8616,0,16.6949-7.0565,24.1586-14.7032,5.27-3.5262,8.3452-22.3456,8.3452-26.4593,0-16.17,3.5169-33.2282,3.5169-49.6952,0-2.6442,0-6.17-1.3137-9.4088V65.3467c0-24.99-15.3812-37.0419-33.8291-37.0419-4.8328,0-18.0107,3.8181-21.5236,6.1707-11.8629,7.941-13.62,24.1107-13.62,39.6957,0,5.8814.438,11.763.438,17.0475,0,9.4118-.438,18.82-.438,27.9368Q115.9651,133.2672,117.281,147.3828ZM129.5851,51.53c4.3921-8.2344,10.1045-10.8813,22.8373-10.8813,9.2253,0,18.0121,11.76,18.0121,24.1149l.4447,69.6814a207.0413,207.0413,0,0,0-1.3226,23.5232,75.3747,75.3747,0,0,0,.4434,9.995c-3.0743,2.0544-4.3987,18.5226-4.3987,19.1152-.4341,2.3528-10.9824,14.9923-14.4926,14.9923-21.0851,0-17.5736-31.4561-18.4488-41.7539-1.7584-19.403-4.8332-39.099-4.8332-59.0961C127.8267,55.06,129.1439,52.7075,129.5851,51.53Z" fill="#fff"/><path d="M280.0207,197.4615c-4.8327-21.7624-18.012-49.3966-22.4-59.69,8.7788-6.4689,19.324-20.5819,19.324-52.9225,0-32.6408-10.5452-49.1078-46.1234-49.1078-4.8327,0-16.6957.5942-23.2833,2.6512a24.0485,24.0485,0,0,0-.4407,6.176c0,11.76,1.7584,27.0507,1.7584,39.3945,0,7.0565-.88,14.4114-.88,21.7623,0,16.7558.88,33.8116.88,50.8657v22.3459c0,13.227,2.1951,25.8733,2.1951,38.811v4.704c.4412,3.5264,5.2713,4.9957,9.666,4.9957,5.7085,0,7.9081-2.3528,7.9081-8.8136,0-14.1157-4.8333-41.4624-4.8333-64.3982,0-1.1749.4385-2.3485.4385-3.5261,4.3948-2.0608,13.62-3.8179,21.9617-6.7648,3.52,8.8243,10.1045,29.9963,11.4289,31.7547,1.3133,2.9453,7.9009,30.2882,12.2956,38.2291,1.3164,1.7584,9.6638,13.8146,18.4506,13.8146,5.7107,0,7.4691-3.2317,7.4691-5,0-2.3527-1.7584-4.704-2.1991-6.1733C292.3208,213.9282,281.3367,203.6319,280.0207,197.4615Zm-55.35-57.339c-.8793-16.171-3.0744-36.1656-3.0744-64.3942V45.7429c3.0744,0,6.1492-.2957,8.3456-.2957,21.521,0,32.0667,7.0563,32.0667,30.58,0,11.4622-1.7585,22.9331-1.7585,32.0507C260.25,126.3027,246.6369,133.6535,224.6708,140.1225Z" fill="#fff"/><path d="M377.2177,148.6524c-1.0082-15.8476-3.3089-17.4659-4.1335-30.3761a36.745,36.745,0,0,1,.1383-4.87h.2306c-.0439-.7673-.0439-1.5479-.0878-2.3153.7324-6.3944,2.4057-12.7821,2-19.1857-.1117-1.7585-1.62-11.655-1.8329-14.8868.3968-6.0986.9257-12.1334,1.7407-17.94-1.7248-6.3771-3.3808-11.57-9.9578-11.1558-8.7628.56-11.15,4.5442-10.7957,10.1205a5.6419,5.6419,0,0,0,1.4826,2.5525c.79,5.5524.9435,7.8985,1.2792,13.1751.0718,1.1308.0718,2.25.1223,3.3769l-.1449.004c.2394,3.8075-.9861,5.366-.5374,12.4052.1906,2.9347-.99,5.0742-.7365,9.18.6212,9.6833-1.5345,31.038-19.9531,32.2089-12.7142.8112-12.8632-1.5334-17.2313-8.03-4.3575-6.2063-4.7721-12.66-5.2195-19.7053l-.0345.0066c-.1628-3.4982-.3534-7.16-.6115-11.2741-.6211-9.6833,5.411-25.6825,5.0341-31.551-.2611-4.1069-3.7806-7.7145-11.2714-7.2321-8.8964.566-5.434,10.6532-6.7952,18.69A71.8934,71.8934,0,0,0,298.47,86.3817c.3968,6.2454-.3534,12.0228-.1867,17.514h-.0718c.0173.2851.0452.5793.0612.8726.008.1558-.016.325-.0067.4808l.0413.0588c1.1643,17.4578,4.0258,40.4563,41.6009,38.06,8.7629-.56,15.4822-5.7018,19.4868-11.8523.5436,8.5123,1.2494,12.5914,1.4906,16.4042.43,6.7539-.4678,13.29-.9165,20.0955-1.86,5.426-6.577,28.12-26.7443,29.4022-9.2014.5861-18.5854-8.5432-19.0367-15.5822-.2279-3.5237,2.6163-7.2363,2.3751-11.0545-.3024-4.6931-1.8595-8.4232-9.3064-7.9448-8.7695.5567-9.9072,10.3482-9.4049,18.2733a64.5381,64.5381,0,0,0,1.5518,10.5106c5.5564,11.1356,20.1288,18.7516,38.101,17.6046C367.7517,207.29,378.6392,170.9541,377.2177,148.6524Z" fill="#fff"/><path d="M182.2363,228.0678c-6.0654-1.0525-12.0589,2.6882-18.573,4.2469a68.3971,68.3971,0,0,1-29.2317,1.51c-14.67-2.5339-26.2983-10.42-35.2216-21.2412a126.1584,126.1584,0,0,1-11.5309-23.3756c-7.0284-18.8168-16.26-36.7571-25.92-60.5694-1.7584-4.4122-4.8332-7.3483-4.8332-9.9994,0-4.7038,7.47-13.5238,8.7868-15.8764,3.0748-5.8791,7.4647-14.6992,10.9842-22.3458L94.7053,38.3681c1.3159-3.232,3.0743-4.1112,3.0743-7.0566,0-3.53-2.6376-5.5829-7.9076-5.5829-6.15,0-8.7867,6.4688-8.7867,9.1131a34.5942,34.5942,0,0,0,.4447,3.8245,16.64,16.64,0,0,0-1.324,4.4056C76.6972,51.9,67.9086,62.7732,67.9086,71.5948,61.3147,86.2979,56.9262,99.5234,46.385,112.17c-1.3217,1.4694-3.0788,3.8219-5.2753,4.7038V30.4323c0-2.9387-3.5119-4.7037-7.4655-4.7037-2.1969,0-5.7125,2.3525-5.7125,3.8245,0,7.9355,1.3164,15.87,1.3164,24.1041,0,17.35-.8752,46.1661-3.5128,69.6854V125.4c0,5.2979,2.1964,10.8808,2.1964,16.4678V163.63c0,8.8149,0,17.9336-.8792,25.5776-.8792,9.4075-4.392,18.8153-4.392,28.2243,0,7.6467,3.5128,12.6424,8.346,12.6424,8.3488,0,9.6661-5.8816,9.6661-12.9381,0-4.11-.4421-8.2339-.4421-12.052,0-16.1766,2.2-30.2881,2.2-48.2217,0-2.64-1.7584-5.2912-1.7584-8.8174,0-5.5871.4371-9.9994,8.346-12.6423H49.46c2.6336,0,5.708,10.877,7.4664,16.1685,6.7628,21.4542,13.3509,45.8163,31.5137,69.6654-.0527.0269-.0931.0614-.1467.0878,10.1111,12.1813,20.8129,20.6566,39.7024,23.92a101.5594,101.5594,0,0,0,56.9621-7.1576c2.8509-1,4.0152-2.5924,4.263-4.0392C189.6752,231.4421,186.5605,228.8149,182.2363,228.0678Z" fill="#fff"/></svg>