<?xml version="1.0" encoding="utf-8"?>
<!-- Generator: Adobe Illustrator 15.0.0, SVG Export Plug-In . SVG Version: 6.00 Build 0)  -->
<!DOCTYPE svg PUBLIC "-//W3C//DTD SVG 1.1//EN" "http://www.w3.org/Graphics/SVG/1.1/DTD/svg11.dtd">
<svg version="1.1" id="Layer_1" xmlns="http://www.w3.org/2000/svg" xmlns:xlink="http://www.w3.org/1999/xlink" x="0px" y="0px"
	 width="676px" height="82px" viewBox="0 0 676 82" enable-background="new 0 0 676 82" xml:space="preserve">
<path fill="#02394D" d="M16.6,15.5c2.8-0.4,6.6-0.7,6.6,0c3.9-1,7.6,1,11.4-0.4c3.8,1.5,7.5-1.6,11.4-0.1c0,0.6,0.4,0.3,0.4,0
	c0,1.1,0,1.1,0,0.5c3.1,0.6,6.2-0.6,9.3-0.3c3.1,1.3,6.2-0.3,9.2-0.1c3.1,1,6.1-1.1,9.1-0.3c3-1.7,6,0,9,0.1c0,1.7,0,6.2,0,2.2
	c0-0.7,7.4,2.5,7.4,0.1c0,3.6,0-1.2,0,0.4c0-0.6,0.9,0.2,0.9,0c0,0.2,0-0.7,0,0c3.8,1,4.9,0.2,5.8-0.3c2,1.4,4.3,0.3,6.6-0.1
	c2.4,1.2,4.9,0.3,7.5-0.1c2.4-0.1,4.8-0.4,7.1-0.1c2.3,1.9,4.6,0.2,6.8-0.1c4.3,0.2,8.2,1.7,11-0.5c0-0.4-0.1-1.7-0.1-2.3
	c3.3-2,6.7,0.1,10-0.6c3.3-1,6.6-0.1,9.9,0.4c3.3-0.5,6.5-1,9.8-0.1c3.2-1.3,6.5-0.5,9.7,0c3.2,1.3,6.4,0,9.6-0.1
	c3.2-1,6.3-1.6,9.5,0c0,0,0,0.4,0,0.8c0,2.1,1.7,1.9,1.7,0c0-1.6,0,1.5,0,1.2c3.1-0.2,5.7-1,7.8,0c2.1,0.9,3.8,0,5-0.1
	c0-0.2,0.2,2,0.2,0c2.3,1.3,4.7-0.2,7.1,0.4c2.4,0.1,4.9,0.5,7.4-0.4c2.5-1.2,5-0.9,7.5,0.2c2.5,0.1,5,0.2,7.5,0
	c2.5,1.4,4.9-0.6,7.2,0.4c2.4,0.7,4.7,0.2,7-0.2c2.3-0.3,4.5,0.4,6.7-0.1c2.2,0.4,4.3,0.7,6.3,0.2c3.3-0.9,6.3-0.4,8.9,0.1
	c2.6,1.6,4.9,0.5,6.9-0.3c4,1,6.7-1.9,8.5-0.9c0-0.2,0-0.7-0.1-1.1c0.2,0.4,0.9,0.5,0.9-0.3c0-0.1,0-0.3,0-0.5c0,0.1,2-1.1,5-0.4
	c3,0,6.9,0.7,10.9,0.2c4-1.2,7.899,0.5,10.899-0.5c3,0.9,5,0.1,5,0.3l7.3,1.7c0,1.9,3.7,0.1,3.7,0.3c1.9,1,3.8-1.7,5.9,0.2
	c2.2-1.1,4.3-0.5,6.399-0.2c2.5-0.9,4.801,0.7,7.301-0.1c1.699-0.5,3.899-0.3,6.8,0.5c1.8-1.2,3.8,1.4,6,0.1c2.2,0.2,4.5-0.7,6.8,0
	c2.4,0.1,4.9,0.6,7.2,0c2.3,0.2,4.3,0.6,6,0.1c0-0.4,0.1,0.3,0.1,0c0,0.2,0.101-0.8,0.101,0c2.8,1.5,5.399,1,7.8,0.1
	c2.399-0.3,4.6-0.5,6.7-0.3c4.1,0.4,7.5-1,10.3-0.2c5.6,0.3,8.899-0.4,11-0.6c2.1,1.8,2.899-0.8,3.6-1.1c0.4,0.7,1.2,0,2.7-0.2
	c2.8-0.2,7.8-1.5,12.4,0.2c4.6,0.2,8.699,1.2,9.699,0.3c-1.3,0.7-2.699-2.4-3.399-2.5c1.2-1.9,2.5-0.5,3.8,0c0,1.9,0.2,3.3,0.2,2.7
	c2.6,2.7,5.3-1.2,8.1,0.2c2.8,1.3,5.9,0.6,9.101,0.1c2.3,0,4.699-1.3,7,0c2.3-1.3,4.6,1.1,6.8-0.1c4.399-0.2,8.6-1.8,12.3-0.2
	c3.5-0.6,6.6-1.5,9.2-0.2c0,0.1,0-1.2,0-0.9c2.399-1.6,4.899,0.1,7.399,0c2.5,0.1,5.101,0.2,7.7,0.3c2.601,0.4,5.4-0.6,8.101-0.1
	c2.8,1.1,5.6,0.2,8.6,0.3c0,0.3,0,0.6,0,0.7c3.2,0.4,6.4-1.3,9.9,0.3c3.8,0,7.399-1.1,11.3-0.2c2,1.4,4,0.2,6.1-0.2
	c2.1,0.4,4.3-0.2,6.5-0.1c0.5,1.9,1.1,0.3,1.6,0c0.801-0.1,1.801-0.5,3,0.5c0-0.6,0.101,0.3,0.101,0c0,0.7,2.2,0.4,5.5-0.2
	c3.3,0,7.8-0.3,12.2-0.1c4.399,0,8.899,1.9,12.199-0.2c3.301-2.1,5.5-1.5,5.5-0.1c0-1.5,1.5-0.5,1.5-0.7c0-1.6,3.301,2,6.601-0.1
	c3.3-2.1,6.6,1.1,6.6-0.1c0-0.2,5,0.8,5,1c0-1.1,0.4,1.1,0.4,0c2.399-1.2,4.7-0.4,7,0.2c2.3-1.2,4.6-0.4,7,0.1
	c0,0.2,1.399-0.2,1.399,0c0.301,0.1,0.601,0.1,0.9,0.2c2.2-2.2,5.4-3.4,9.3-2.1c3.2,1,6.3,1.7,9.5,2.3c0-1.2,0-2.5,0-4
	c0-4.9-0.1-9.2-0.1-9.8c0,0.3-12.5-0.4-12.5,0.1c0-1.4-12,1.7-12,0.3c-2.5-2.7-5.3,1.4-8.5,0.2c-3.2,0.5-6.9-2.6-11.1,0.1
	c-3.7-0.9-7.301,0.8-11-0.2c-3.601-0.2-7.301-0.1-11-0.1c-2.7,0.3-5.2,2.1-7.801,0c-2.6,0-5.1-0.8-7.6,0.1c-2.5,1.7-5,1-7.4,0.3
	c-2.5,0-4.899,0.9-7.3-0.1c-2.399-0.7-4.899,0-7.3,0c-2.5-1.2-4.9-0.4-7.4,0.3C550.2,0.8,546.7,3,543.2,1.8c0-0.3,0-0.6,0-0.8
	c0-1.1-2.2,0.9-5.601-0.1c-3.3,0.5-7.8-0.1-12.199-0.4c-4.4-0.4-8.9,1-12.2-0.3C509.9-1,507.6,0.5,507.6,0c0,0.7,2.5,2.1,2.5,2.5
	c-2.5-0.5-5.1,1-7.8,0c-2.7,0.8-5.399-1.1-8.2,0c0-1.6,0,0.5,0,0.7C491,4,487.8,5,484.6,2.9c-3.1-1.7-6.399-1.7-9.5-0.3
	c-3.1-0.1-6,1.5-8.199-0.3c0-0.3,0-0.2,0-1.2c-4.301-0.6-7.9-0.9-11.101,0c-3.2-1-5.899,0.4-8.399,0c-2.5,1-4.7,0.7-6.801-0.1
	c-2.1,0-4.199-0.5-6.3,0.4c-3.399,0.5-7.1,0.8-11.8,0.3c-2.8-0.7-6.3,1.8-9.8,0c-2.7-0.3-5.9,0.4-8.601,0
	C401.4,0.4,399.2-0.2,398.4,1.5c0,0.1-0.5-0.5-0.5-0.1c0-0.3-4.9-0.1-4.9,0.1c-2.8-0.4-4.9,0.7-6.9,0.2c-2-0.4-3.8-0.2-5.899,0.1
	c-2.101,0.1-4.5-0.8-7.7-0.1c-3.2-0.8-7.2-0.7-12.4-0.2c0,0.7-0.1-1.1-0.1,0c0-0.5-0.1-1.6-0.1,0C357,1,354,3,351.1,1.8
	C348.2,2,345.6,2.3,343.3,2c-2.399,0.5-4.2-1-5.5,0.2c-1.399,1.1-4.7-0.9-6.1,2.5c0-0.2-0.9,1.2-0.9,0l-7.7-1.8
	C323.1,4,318.7,3.3,312.9,3c-2.9-0.8-6.2-0.6-9.4,0.1c-3.3,0.3-6.5-0.5-9.4,0c-5.8-0.5-10.2,1.7-10.2,0.1c0-0.6,0-0.8,0,0.6
	c0-1.6-10.2,1.1-10.2,0c-1.7-0.1-4.4-0.2-6.1-1.7c-2.3,0.4-5.9-0.9-10.8-0.3c0-1.7-0.1,0.9-0.1,0c0-0.9-1.7,0.3-1.7,0
	c-3.5-0.6-7,0-10.4,0.5c-3.5,0-6.9,1.3-10.3,0c-3.4,0.9-6.8,0.7-10.2,0.3c-3.4,0.9-6.8,1.8-10.2,0.1c-3.4,1.1-6.8,0.5-10.2,0.6
	c-3.4,0.4-6.8,0.4-10.2-0.3c-3.4,0.7-6.8-1-10.2,0.1c-3.4,0-6.9,0.7-10.3,0c-3.2,0.4-6.4,1.8-9.5,0.6c-3.1-0.7-6.2-0.4-9.3-0.7
	c-3.1-0.9-6.1-0.4-9.2-0.5c-3,1.6-6.1,0.4-9.1,0.2c0-1.6-4-0.6-10,0c-3,0.8-6.5,1.8-10.2,0c-3.7-1.2-7.7-0.2-11.7,0
	c-4,0.9-8,1.1-11.7,0c-3.7-0.3-7.2,2.4-10.2,0c-6-0.3-10-1.8-10,0c0,1.2-4.5-0.4-11.2,0c-3.4-2.9-7.3,0.9-11.5-0.3
	C47,1,44.9,1,42.6,2.6c-2.2,1.4-4.5,0.5-6.7,0.1c-2.2-1.3-4.5,1-6.7-0.2c-2.2-0.2-4.4,1.4-6.5,0.3c-4.2,0-8.1,0.8-11.5,0
	C4.5,3.8,0,2.8,0,2.8l0.1,11.3C3.7,14,7.4,13.9,11,13.9C13.3,13.9,15.2,14.5,16.6,15.5z M46.3,12.6c0-1.3,0.1-0.5,0.1,1.1
	c-0.3,0.9-0.6,1.1-0.8-0.7C45.7,13.6,46.3,12.8,46.3,12.6z"/>
<path fill="#02394D" d="M653.8,63.7c-0.399-0.101-0.899-0.3-1.3-0.4c0,0.3,0,0.601,0,0.9c-1.9-0.5-4.5-0.101-8.2-0.4
	c-1.8-0.6-3.899-0.3-6.3,0.101c-2.4-0.4-5-0.7-8-0.301c0-2.199,0-0.399,0-0.399c-1.2-0.7-2.1-0.7-2.8,0c-1-0.5-2-1-3,0
	c-2.7-0.7-5.601-0.2-8.4,0.399c-2.8,1.2-5.5-0.899-8-0.6c-5,1.1-9.1,1.7-10.899-0.4c0,0.801-0.301,0.801-0.301,0
	c-1.699,2-4.8-0.6-8.3-0.1c-3.5,0.9-7.399-0.9-10.8-0.1c-2.5,0.6-4.5,0.899-5.8,0c-0.8,0.5-1.9-0.101-3,0.3c-2.5-1-5,0.2-7.601-0.2
	c-2.6-0.7-5.199-1.5-7.899-0.1c-2.7-1.5-5.3-0.601-8-0.301c-2.7-2.1-5.4,0-8.101,0.101c-2.699-1.5-5.5-0.3-8.199,0
	c-2.7,0.5-5.4,0-8.2,0c-2.8-0.2-5.601-2.7-8.4-0.3c-2.8-1.4-5.6,1.899-8.399,0.3c-2.801,0.399-5.601-0.3-8.4,0.399
	c-2.8-2-5.5-0.3-8.2-0.5c-2.7-0.6-5.399-1.5-8-0.5c-2.6-0.399-5.2,0.5-7.8,0.2c0,0.8-0.2,0.3-0.2,0c-3.899-0.7-7.399,0.3-10.7,0
	c-3.3-1-6.3-0.1-9,0c-2.8,0.601-5.3-0.1-7.699-0.1c-2.4,1.399-4.601-1-6.7,0c-4.2,0.5-8-0.601-11.601-0.3
	C421.7,64.1,417.9,63.6,413.8,61.1c-2.1-1.5-4.2,1.9-6.6-0.1c-2.3,0.1-4.8-0.6-7.5,0c-3.2-1.4-6.7,1.4-10.3,0
	c-3.601-0.5-7.5,0.3-11.7,0.1c-3.5,1.4-4.101-0.3-4.7-0.3c-1.2,0.4-2.3,1.101-6.4-0.5c-3.1-0.7-6.199-0.3-9.3-0.1
	c-2.5-1.3-4.899,0-7.3,0c-2.3,1.7-4.6-0.2-6.8,0.1c-2.2-1.7-4.4,0.2-6.4,0.3c-2.1,0.801-4.1,0.5-6.1,0.2c-4,0.7-7.7,1.5-11.3,0.601
	C317,62.2,314.6,61.8,312.3,61.8c-3.8,1.2-7.9,0.4-11.9,0c-1.8-4-5.1-2.5-7.5-1.899c-2-1.801-4.5,0.399-7.5,0.199
	c-3,0-6.4,1.5-10.1,0.4c-2.4-0.7-4.8,0.8-7.3,0.9c-2.5-0.9-5,1.699-7.4-0.4c-2.5,0.7-4.9,0.4-7.2-0.2c-2.3,0.101-4.6,0.3-6.7,0.4
	c-2.9,1.2-5.4-2.5-7.3-0.2c0-0.4-0.2-0.9-0.2,0c0,0.7-0.2,1.7-0.2,0c-0.7-2.2-1.3-0.8-1.8,0.3c-0.2,0.3-0.5,0.9-0.8,0
	c0,0.3,0,1,0,1.2c-0.2,0.6-0.4,0.6-0.6,0.5c0.2-0.4,0.4-1.2,0.6-1.2v-0.2c-0.2-0.1-0.4,0.7-0.6,1.4c-0.1-0.1-0.3-0.3-0.4-0.5
	c0.1,0.8,0.2,0.8,0.4,0.5c-0.3,1-0.5,1.9-0.7-0.5c-0.2,1.4-0.4-0.8-0.5,0c-3.8-0.9-7.4-1.3-10.7,0.3c-3.3,1.601-6.3,2-8.7,0.3
	c-1.7-0.5-4.4-0.899-6.5-1.5c0-1.399-0.1,0.801-0.1,0c0-1.699-1.5-1.399-1.5-1.399c0-0.601-5.6-0.4-11.2,0c-5.6,0.3-11.2,0.7-11.2,0
	c0,0,0,1.1,0,0.899c-0.7-0.5-1.3,0-1.7,0.2c-0.2-0.6-0.3,1.4-0.4,0c0.6,0,1.2-1.7,1.9-0.8c-0.7-1.8-3.7,0.3-5.6,0.3
	c-1.2-0.6-2.4-1.2-3.2,0.101c-1.6,0.8-2.8,1.1-3.6,0.899c-0.2,0-0.5,0.2-0.7,0c-3.9-0.3-7.9-1.5-11.7-0.1
	c-4.2,1.399-7.7-1.8-10.4,0.1c0,0.8,0,0,0,0.3c-3.9,1.4-7-0.3-9.5,0.7c-2.5,0.8-4.5-2-6-0.899c-3.1-0.7-4.5-0.801-5.9-0.7
	c-1.3-0.5-2.5-0.7-4.5-0.601c-2-1.1-4.7,0.2-9-0.3c-1.2,1.4-2.6,2.3-4.1,0c0,2,0-0.2,0,0.601c-4.1,0-5.2,3.199-5.4,4.399
	c-0.4,0.3-0.8,0.3-1.2,0c-2.2-0.899-4.7,0.7-7.2-0.2c-2.5,0.101-5.2,0-7.7-0.199v-0.2c-3,1.1-5.8-0.101-8.3-0.4
	C78,63.6,75.8,63.5,74,63.9c0-0.101,0-0.101,0,0c0-1,0-2.7,0-1.801C74,61.7,68.3,62,62.6,62c-5.7-0.5-11.4-0.4-11.4-0.1
	c0-0.101-0.1,0.6-0.1-0.5c-3.1-0.7-6-0.101-8.9,0.1c-2.8,0.6-5.5-0.9-8.1,0c-3,0.6-5.9,0.6-8.5,0c-3.5,0.4-6.7-0.7-9.7-0.2
	c0,0.5-1.7-0.3-1.7,0c0-0.1,0-0.899,0.1-1.899c-4,1-8.3,0.899-12.7,0.899c0.1,0.8,0.3,1.4,0.6,2c0,2.601,0.1,3.3,0.1,5.8
	c0-0.3,0.1,5.7,0.1,5c0,0.2,5,0.9,5-0.1c2.5-0.7,5.4-0.1,8.7,0c1.7,1.4,4,0.1,6.1,0.9c2.3-0.101,5.4,1,8.6,0.1
	c2.8,1,6.3-0.5,9.3,0.1c2.2-0.1,4,0.4,5.2,0.5c-0.9-0.199-1.8-1.199-2.3-3c1.3-0.8,2.5-0.6,3.9,0c0-0.399,0.4,3.5,0.4,3.301
	c3.6-0.9,6.8-1,9.6-0.301c2.8,0.801,5.3-0.8,7.6,0.4c4.5-1.2,8.1,0.1,11.9,0.5c3.7,0,7.6,0.8,12.4,0.6c2.4,0.5,5.1,0.7,8.2,0.2
	c3.1,0.2,6.5-0.6,10.4,0.101c0-2.301,0.1-0.4,0.1,0c0,0.899,0.1,0.699,0.1,0c1.9-0.601,3.2,1.1,4.1-0.2c4.7-1.8,5.7-3.5,5.8-4.7
	c0,1.1,0-0.6,0,0c1.8,0.8,2.9,0.7,3.5,0.3c1,0.5,2.4,1.8,4.3,2.101c2-0.7,4.5-0.7,8,0.399c2,0.3,5.8,0.5,12.1,0.3
	c1.9-1.6,4-0.8,6.1,0c2.1,0.801,4.3-0.199,6.4,0c4.3-1.699,8.6,0.5,12.4-0.1c6,0,9.7,1.9,11.2,0.3c0,0,0.3-0.899,0.3,0
	c0,0.4,0.3,1.101,0.3,0c2.5,0.9,4.9,0.3,7.5-0.1c2.5,0.3,5.2-0.3,7.9,0c4.1,1,8-1.3,11.8,0.1c3.8,0.3,7.5,0,11.1,0.101
	c3.1-1.101,6,2.399,8.9,0.1c2.9-0.8,5.7-1.8,8.3,0c2.4,0.5,4.7-1.5,6.8,0.1c2.1,0.4,4-0.1,5.8-0.3c3.6,0,6.7,1.7,9.4-0.5
	c0-1.2,1.5-0.8,3.9-0.7c2.3,0.5,5.4,1.801,8.5,1.301c6.2-1.101,12.4-0.101,12.4,0.6c0,1.1,0.2-0.3,0.2,0c2.4,1.2,4.7,0.8,7,0.1
	c2.3,1.7,4.6-1.8,6.9,0c2.6-1.199,5.2-2.199,7.7,0c2.5-0.699,4.8,1.4,7.1-0.1c2.3,0.3,4.601,1.4,6.8-0.1c2.2-1,4.4,0.699,6.5-0.2
	C328.7,75.1,330.8,75.1,333,75.1h0.3c2-0.199,3.3-0.5,4.2-1.399c4.5-0.5,8.5-0.9,11.9-0.101c0,0.7,0,0.4,0,0.7
	C353.3,75,357.1,73.4,360.7,73.9c3.6,0.5,7.2,0.3,10.6,0.399c3.4-1.3,6.8,0.101,10-0.2c3.2-0.899,6.4,1.301,9.5,0.601
	c3.101-0.9,6.2,2.5,9.2,0.399c3,1.2,6,0.9,8.9,0.2c3.6-0.1,7.199,2.4,10.699,0.4c3.5,0,7.101-0.5,10.7,0.3c0,1.8,0.2,0.2,0.2,0
	c3.9-0.2,8,0,12.2,0c4.2-0.3,8.5-0.4,12.899,0c4.4,0.9,8.801,0,13.2,0c3.4,0.7,6.8-1,10.2,0c3.4,2.3,6.7,0.9,10,0
	c2.5,1.5,5.1,2.2,7.7-0.3c2.6,0.399,5.2-0.8,7.7,0.3c2.6,1.7,5.1,0.9,7.5-0.2c2.5-0.7,4.8-2.1,7.1,0c4.5-0.8,8.6-0.3,12-0.399
	c0-0.4,0-0.9,0-1.4c1.2-1.3,2.8,0.3,4.9,0c2.1-0.1,4.7,0.2,7.899,0c5.101-0.1,8.4,0.5,10.5,0.3c0.5,1,1,0.601,1.601,0.9
	c0-0.101,0.8,0.5,0.8,0.3c0-0.6,0.9-1.2,0.9,0c2.6-2.1,5.6,1.8,8.699,0c3.101-1,6.5-0.2,9.801-0.1c2.8,0.399,5.6,0.6,8.399-0.101
	c2.8-0.6,5.5-1,8,0c1.9,0.601,3.5-1.3,5,0c0.5-1.1,1.101-0.7,1.8,0.3c0.4-0.699,1-2,1.7,0.101c1.3-0.101,3.101,0.8,4.601,0.2
	c0.899-0.801,2,0.399,2.699,0.1v0.1c3.601-0.399,6.801-0.199,9.5,0.101c4.601,0.5,8.301,0.6,11.601-0.101c3.3-0.899,6.2-1.3,9.3-0.3
	c2.2-1.1,4.5-1.6,7.2-0.3c2.7,0.3,5.6,0,9.1-0.3c0.8,1.1,1.9,1.7,3.6,1.399c0-0.399,0,0.101,0,0c4.9,1.5,5.301-5.8,5.5-8.8
	c0.101-0.7,0.101-1.8,0.2-3C660.5,64.7,657.2,64.6,653.8,63.7z M73.5,65.2c0-0.3,0-0.8,0-1.101c0.1,0.4,0.2,0.601,0.4,0.7
	C73.7,64.9,73.6,65.1,73.5,65.2z M570.5,65.3c0-0.6,0.2-2.399,0.2-2.399c1.2-0.2,2.5,0.6,3.2,2.399
	C572.8,65.4,571.6,64.5,570.5,65.3z M607.8,75.7c-1.3-2.2-2.6-0.9-3.2-2.7c1,1.2,2.101,0.3,3.301,0.1
	C607.8,73,607.8,74.7,607.8,75.7z"/>
</svg>
