<?xml version="1.0" encoding="utf-8"?>
<!-- Generator: Adobe Illustrator 18.1.1, SVG Export Plug-In . SVG Version: 6.00 Build 0)  -->
<svg version="1.1" id="Layer_1" xmlns="http://www.w3.org/2000/svg" xmlns:xlink="http://www.w3.org/1999/xlink" x="0px" y="0px"
	 viewBox="0 0 612 792" enable-background="new 0 0 612 792" xml:space="preserve">
<path fill="none" d="M-168-1h-0.1c0,0.4,0.1,0.7,0.1,1.1V-1z"/>
<path fill="#FCDD51" fill-opacity="0.5" d="M760.7,288.8c-0.2,14.1-0.5,32.6-0.8,54.2c-0.1,10.8-0.3,22.4-0.4,34.5
	c-0.1,5.4-0.1,10.9-0.2,16.6c-0.1,0.9-0.1,1.9-0.3,2.9l-1.2,0.1v0.7L480.5,456c-15.7,3.9-31,7.7-46.2,11.4c7.2-0.5,8.7,0.2,25.6-1.9
	l-20.4,3.6c-17.9,6.8-60.7,15.7-80.5,21.1c4-2.4-11.8,0.6-25.8,3.3l5.7-0.1c-9.9,2-20,4.1-30.5,6.2c-42.9-8.9-88.5-18.2-125.3-25.7
	c-6.6-1.4-11.4-3-14.3-4.1l-45.6-8.4c3.7-1.2-32.5-8.7-18.7-6.9c-33.3-4.8-66.4-13.1-98.2-17.2c-27.5-5.6-55.4-11.4-83.5-17.1
	c-14.1-2.8-28.3-5.7-42.5-8.5c-7.1-1.4-14.3-2.8-21.4-4.2l-11.6-2.2c-0.6-28.9-1.2-58-1.7-87c-0.8-32.5-1.6-64.8-2.4-96.9l-0.7,3
	c-1.4-42.8-7-80.6-5.6-132.6c-1.4-17.2,1.1-37.9-4.9-56.5V0.1c0-0.4-0.1-0.7-0.1-1.1h-14.6c-1.9,83.3-3.2,166.9-3.9,251.2
	c0.6,26.5,0.9,53.8,0.9,81.5c0,33.3-0.1,67-0.1,100.6c27.9,5.8,55.8,11.6,83.3,17.4c82,16.4,170.8,33.6,241.4,46.6
	c16.9,3,28.6,7.2,42.7,11.2c18.5,3.7,38.4,7.7,59.2,11.9c21.9,4.5,44.7,9.3,67.7,14.1c17.5-3.7,35-7.5,52.5-11.2
	c16.1-3.6,32.1-7.1,47.7-10.6c-0.3,0.1-0.7,0.1-1,0.1c37.4-8.2,66.3-12.1,103.2-20.2c-0.3-0.6,5.5-1.8,8.3-2.8
	c7.2,1.4,221.2-52.6,234.9-53.7c4.3-1,8.9-2.1,13.4-3.2c9.4-1.8,18.8-3.7,28.2-5.5l0.3-21.3l0.5-18.1c0.3-9.4,0.6-18.9,0.9-28.3
	c0.7-18.8,1.4-37.5,2.1-55.9c1.3-36.7,2.4-72,2.2-104.2c-1.4-15.2-2.6-32.3-4.1-45c1.2-12.4-1.2-14.7-0.8-29.7
	c5.7-37.8,3.3-60,1.3-40.4c-0.7-29.1-0.3-58.2-0.4-84.5h-34.3C764.6,91.5,762.8,188.9,760.7,288.8z"/>
<path fill="#FCDD51" d="M-161.7,91.7c-1.4-17.2-2.3-37.9-3.4-56.5c-0.8-13.4-1.7-25.8-2.9-35.2v35.2c6,18.6,3.5,39.2,4.9,56.5
	c-1.4,52,4.2,89.8,5.6,132.6C-158.9,181.5-163,143.7-161.7,91.7z"/>
<g>
	<path fill="#FFFFFF" d="M763.1-1L763.1-1h-5.3h-900.9H-168v1.1c1.1,9.3,2,21.7,2.9,35.2c1.2,18.6,2.1,39.2,3.4,56.5
		c-1.4,52,2.8,89.8,4.2,132.6l0.7-3c0.8,32.1,1.6,64.5,2.4,96.9c0.5,29,1.1,58.1,1.7,87l11.6,2.2c7.1,1.4,14.3,2.8,21.4,4.2
		c14.2,2.8,28.3,5.7,42.5,8.5c28.1,5.7,56.1,11.5,83.5,17.1c31.8,4.1,64.9,12.4,98.2,17.2c-13.8-1.8,22.4,5.7,18.7,6.9l45.6,8.4
		c2.9,1.1,7.7,2.7,14.3,4.1c36.8,7.5,82.3,16.8,125.3,25.7c10.5-2.2,20.6-4.3,30.5-6.2l-5.7,0.1c14-2.7,29.8-5.7,25.8-3.3
		c19.8-5.4,62.6-14.3,80.5-21.1l20.4-3.6c-16.9,2.1-18.3,1.4-25.6,1.9c15.1-3.7,30.5-7.5,46.2-11.4c25.3-6.3,51.4-13,79.2-20
		c-18.2,3.2-18.2,3.2-36.4,6.3c11-2,21.7-4.1,32.6-6.1c7.3-1.3,15.7-2.9,25.1-4.7c1.9-0.4,3.8-0.7,5.7-1.1c1-0.2,2-0.4,2.9-0.6
		c2-0.4,4-0.8,6-1.2c2-0.4,4.1-0.8,6.2-1.2c1.1-0.2,2.1-0.4,3.2-0.6c2.1-0.4,4.3-0.8,6.5-1.3c4.4-0.8,8.9-1.7,13.5-2.6
		c4.6-0.9,9.3-1.8,14.1-2.7c2.4-0.5,4.8-0.9,7.2-1.4c2.4-0.5,4.9-1,7.3-1.4c12.3-2.4,25.1-4.9,38-7.5c5.2-1,10.4-2,15.6-3.1
		c2.6-0.5,5.2-1,7.8-1.5c10.5-2.1,20.9-4.1,31.3-6.2l7.8-1.5l1.6-0.3l0.3-0.1l0.5-0.1l1.2-0.1v0l1.2-0.1c0.1-1,0.2-2,0.3-2.9
		c0.1-5.7,0.1-11.2,0.2-16.6c0.1-12.1,0.3-23.7,0.4-34.5c0.3-21.6,0.6-40.1,0.8-54.2C762.8,188.9,764.6,91.5,763.1-1z"/>
</g>
<g>
	<path fill="#FFFFFF" d="M756.1,397.3l-0.3,0.1l-1.6,0.3l-7.8,1.5c-10.4,2.1-20.8,4.1-31.3,6.2c-2.6,0.5-5.2,1-7.8,1.5
		c-5.2,1-10.4,2-15.6,3.1c-12.9,2.5-25.7,5.1-38,7.5c-2.5,0.5-4.9,1-7.3,1.4c-2.4,0.5-4.8,0.9-7.2,1.4c-4.8,0.9-9.5,1.8-14.1,2.7
		c-4.6,0.9-9.1,1.8-13.5,2.6c-2.2,0.4-4.4,0.8-6.5,1.3c-1.1,0.2-2.1,0.4-3.2,0.6c-2.1,0.4-4.2,0.8-6.2,1.2c-2,0.4-4.1,0.8-6,1.2
		c-1,0.2-2,0.4-2.9,0.6c-1.9,0.4-3.9,0.7-5.7,1.1c-9.4,1.8-17.8,3.3-25.1,4.7c-10.9,2-21.6,4.1-32.6,6.1c18.2-3.1,18.2-3.1,36.4-6.3
		c-27.8,7-53.9,13.7-79.2,20l277.4-58.2v-0.7l-1.2,0.1L756.1,397.3z"/>
</g>
<g>
	<path fill="#FFFFFF" d="M601.9,637.5c-2.1,0.4-4.2,0.8-6.2,1.2C597.7,638.3,599.7,637.9,601.9,637.5z"/>
</g>
<g>
	<path fill="#FFFFFF" d="M595.6,638.7c-2,0.4-4.1,0.8-6,1.2C591.6,639.5,593.6,639.1,595.6,638.7z"/>
</g>
<g>
	<path fill="#FFFFFF" d="M756.6,397.2l-0.5,0.1l-0.3,0.1l-1.6,0.3l-7.8,1.5c-10.4,2.1-20.8,4.1-31.3,6.2c10.5-2.1,20.9-4.1,31.3-6.2
		l7.8-1.5l1.6-0.3l0.3-0.1L756.6,397.2l1.2-0.1v0L756.6,397.2z"/>
</g>
<g>
	<path fill="#FFFFFF" d="M586.6,640.4c-1.9,0.4-3.9,0.7-5.7,1.1C582.8,641.2,584.7,640.8,586.6,640.4z"/>
</g>
<g>
	<path fill="#FFFFFF" d="M707.2,617c-5.2,1-10.4,2-15.6,3.1C696.8,619,702,618,707.2,617z"/>
</g>
<g>
	<path fill="#FFFFFF" d="M639.1,630.3c-4.8,0.9-9.5,1.8-14.1,2.7C629.7,632.2,634.4,631.2,639.1,630.3z"/>
</g>
<g>
	<path fill="#FFFFFF" d="M653.7,627.5c-2.5,0.5-4.9,1-7.3,1.4C648.8,628.4,651.2,627.9,653.7,627.5z"/>
</g>
<g>
	<path fill="#FFFFFF" d="M611.5,635.7c-2.2,0.4-4.4,0.8-6.5,1.3C607.2,636.5,609.3,636.1,611.5,635.7z"/>
</g>
</svg>
