<?xml version="1.0" encoding="utf-8"?>
<!-- Generator: Adobe Illustrator 15.0.0, SVG Export Plug-In  -->
<!DOCTYPE svg PUBLIC "-//W3C//DTD SVG 1.1//EN" "http://www.w3.org/Graphics/SVG/1.1/DTD/svg11.dtd" [
	<!ENTITY ns_flows "http://ns.adobe.com/Flows/1.0/">
]>
<svg version="1.1"
	 xmlns="http://www.w3.org/2000/svg" xmlns:xlink="http://www.w3.org/1999/xlink" xmlns:a="http://ns.adobe.com/AdobeSVGViewerExtensions/3.0/"
	 x="0px" y="0px" width="1016px" height="792px" viewBox="0 2.094 1016 792"
	 overflow="visible" enable-background="new 0 2.094 1016 792" xml:space="preserve">
<defs>
</defs>
<rect x="1.5" fill="#F7F4DA" width="1037.4" height="813.694"/>
<polygon fill="#E5D3C9" points="880,26.694 807.5,110.694 921.4,80.894 "/>
<polygon fill="#EED6CA" points="581.8,71.894 385.1,128.694 476.2,194.594 "/>
<polygon fill="#E0CCC9" points="581.8,71.894 629.5,151.994 476.2,194.594 "/>
<polygon fill="#CCC7C9" points="0,2.094 898.7,3.394 484.5,25.394 "/>
<polygon fill="#F6E1CB" points="447.3,686.995 569.4,765.794 480.4,814.894 "/>
<polygon fill="#F1DAC9" points="87,52.494 16.6,136.494 33.1,20.194 "/>
<polygon fill="#E8DDD2" points="0,2.094 16.6,136.494 33.1,20.194 "/>
<polygon fill="#CCC7C9" points="84.9,449.194 70.4,503.495 124.2,442.794 "/>
<polygon fill="#D7C8C8" points="921.4,80.894 807.5,110.694 923.5,96.394 "/>
<polygon fill="#F1E4CD" points="1035.3,462.094 867.6,591.394 989.8,631.394 "/>
<polygon fill="#E7DDD2" points="447.3,686.995 569.4,765.794 712.3,648.194 "/>
<polygon fill="#CCC3C7" points="250.5,312.194 447.3,332.894 463.8,274.794 "/>
<polygon fill="#C5C3C8" points="463.8,274.794 447.3,332.894 565.3,372.994 "/>
<polygon fill="#EED6CA" points="484.5,25.394 581.8,71.894 757.9,26.694 "/>
<polygon fill="#E0CCC9" points="880,26.694 807.5,110.694 757.9,26.694 "/>
<polygon fill="#E0CCC9" points="581.8,71.894 739.2,93.794 757.9,26.694 "/>
<polygon fill="#E9D2C9" points="739.2,93.794 807.5,110.694 757.9,26.694 "/>
<polygon fill="#E5CFCA" points="898.7,3.394 484.5,25.394 757.9,26.694 "/>
<polygon fill="#E5D3C9" points="898.7,3.394 880,26.694 757.9,26.694 "/>
<polygon fill="#F2E5CC" points="250.5,312.194 447.3,332.894 312.7,383.294 "/>
<polygon fill="#F2E5CC" points="250.5,312.194 124.2,442.794 312.7,383.294 "/>
<polygon fill="#F7F5E4" points="447.3,332.894 565.3,372.994 312.7,383.294 "/>
<polygon fill="#F3EBD8" points="971.1,188.194 1035.3,462.094 985.6,176.594 "/>
<polygon fill="#D7C8C8" points="1025,88.694 1035.3,462.094 985.6,176.594 "/>
<polygon fill="#DED7D1" points="1025,88.694 923.5,96.394 985.6,176.594 "/>
<polygon fill="#E8DDD2" points="385.1,128.694 476.2,194.594 362.4,185.594 "/>
<polygon fill="#E8D0C9" points="476.2,194.594 451.4,220.494 362.4,185.594 "/>
<polygon fill="#D3C9CA" points="451.4,220.494 463.8,274.794 362.4,185.594 "/>
<polygon fill="#D8C6C8" points="211.2,243.794 250.5,312.194 362.4,185.594 "/>
<polygon fill="#CDC3C8" points="463.8,274.794 250.5,312.194 362.4,185.594 "/>
<polygon fill="#F6EDCF" points="768.2,394.994 867.6,591.394 627.4,517.694 "/>
<polygon fill="#E1D0CB" points="569.4,765.794 480.4,814.894 834.5,796.894 "/>
<polygon fill="#F6E8CC" points="447.3,686.995 480.4,814.894 376.9,689.594 "/>
<polygon fill="#F7F5DA" points="385.1,128.694 362.4,185.594 271.3,150.694 "/>
<polygon fill="#CFC5C7" points="362.4,185.594 211.2,243.794 271.3,150.694 "/>
<polygon fill="#F1E9D2" points="627.4,517.694 867.6,591.394 679.2,588.794 "/>
<polygon fill="#F3EBD7" points="867.6,591.394 712.3,648.194 679.2,588.794 "/>
<polygon fill="#D3CACA" points="712.3,648.194 447.3,686.995 679.2,588.794 "/>
<polygon fill="#EED6CA" points="16.6,136.494 87,164.894 37.3,397.494 "/>
<polygon fill="#E3CDC9" points="87,164.894 211.2,243.794 37.3,397.494 "/>
<polygon fill="#DCC9C8" points="211.2,243.794 250.5,312.194 37.3,397.494 "/>
<polygon fill="#F1DAC9" points="250.5,312.194 124.2,442.794 37.3,397.494 "/>
<polygon fill="#C5C3C8" points="124.2,442.794 84.9,449.194 37.3,397.494 "/>
<polygon fill="#CFC4C8" points="84.9,449.194 70.4,503.495 37.3,397.494 "/>
<polygon fill="#EAD4CB" points="627.4,517.694 679.2,588.794 548.7,539.694 "/>
<polygon fill="#E8DDD2" points="679.2,588.794 447.3,686.995 548.7,539.694 "/>
<polygon fill="#E5D3C9" points="1035.3,4.694 1025,88.694 950.4,49.894 "/>
<polygon fill="#F4E9DC" points="880,26.694 921.4,80.894 950.4,49.894 "/>
<polygon fill="#E5CFCA" points="898.7,3.394 1035.3,4.694 950.4,49.894 "/>
<polygon fill="#F6EDCF" points="898.7,3.394 880,26.694 950.4,49.894 "/>
<polygon fill="#E1CDCB" points="463.8,274.794 565.3,372.994 648.1,352.294 "/>
<polygon fill="#D6CCCA" points="565.3,372.994 650.2,391.094 648.1,352.294 "/>
<polygon fill="#C4C3C9" points="805.5,385.894 768.2,394.994 648.1,352.294 "/>
<polygon fill="#CCC3C7" points="650.2,391.094 768.2,394.994 648.1,352.294 "/>
<polygon fill="#F7F3D7" points="124.2,442.794 70.4,503.495 72.5,520.294 "/>
<polygon fill="#F2E2CF" points="989.8,631.394 880,760.694 991.8,813.694 "/>
<polygon fill="#F6E5CF" points="880,760.694 834.5,796.894 991.8,813.694 "/>
<polygon fill="#E5D3C9" points="807.5,170.094 971.1,188.194 730.9,251.494 "/>
<polygon fill="#E5CFCA" points="971.1,188.194 805.5,385.894 730.9,251.494 "/>
<polygon fill="#F4E9DC" points="463.8,274.794 648.1,352.294 730.9,251.494 "/>
<polygon fill="#E1CDC9" points="648.1,352.294 805.5,385.894 730.9,251.494 "/>
<polygon fill="#DFCCC9" points="629.5,151.994 730.9,251.494 730.9,193.394 "/>
<polygon fill="#D3C9C9" points="807.5,170.094 730.9,251.494 730.9,193.394 "/>
<polygon fill="#F1E5CC" points="950.4,49.894 921.4,80.894 935.9,87.394 "/>
<polygon fill="#E5D3C9" points="950.4,49.894 1025,88.694 935.9,87.394 "/>
<polygon fill="#D7C8C8" points="921.4,80.894 923.5,96.394 935.9,87.394 "/>
<polygon fill="#F3EBD8" points="1025,88.694 923.5,96.394 935.9,87.394 "/>
<polygon fill="#E0CCC9" points="484.5,25.394 581.8,71.894 436.9,30.494 "/>
<polygon fill="#F3EBD7" points="581.8,71.894 385.1,128.694 436.9,30.494 "/>
<polygon fill="#E5D3C9" points="807.5,170.094 730.9,193.394 730.9,175.294 "/>
<polygon fill="#E5CFCA" points="739.2,93.794 807.5,110.694 730.9,175.294 "/>
<polygon fill="#CCC7C9" points="807.5,110.694 807.5,170.094 730.9,175.294 "/>
<polygon fill="#CCC7C9" points="629.5,151.994 476.2,194.594 465.9,215.294 "/>
<polygon fill="#D7C8C8" points="629.5,151.994 730.9,251.494 465.9,215.294 "/>
<polygon fill="#CCC7C9" points="476.2,194.594 451.4,220.494 465.9,215.294 "/>
<polygon fill="#E1CDC9" points="451.4,220.494 463.8,274.794 465.9,215.294 "/>
<polygon fill="#E3CDCB" points="730.9,251.494 463.8,274.794 465.9,215.294 "/>
<polygon fill="#E8D0C9" points="130.4,754.194 178.1,773.594 51.8,782.594 "/>
<polygon fill="#D5CACA" points="178.1,773.594 202.9,804.594 51.8,782.594 "/>
<polygon fill="#EAEAEB" points="202.9,804.594 4.1,808.495 51.8,782.594 "/>
<polygon fill="#F4E8DB" points="376.9,689.594 178.1,773.594 310.6,803.294 "/>
<polygon fill="#F7F5DA" points="376.9,689.594 480.4,814.894 310.6,803.294 "/>
<polygon fill="#F6E1CB" points="178.1,773.594 202.9,804.594 310.6,803.294 "/>
<polygon fill="#D6C6C8" points="629.5,151.994 730.9,193.394 675,151.994 "/>
<polygon fill="#CCC7C9" points="730.9,175.294 730.9,193.394 675,151.994 "/>
<polygon fill="#E6CEC8" points="581.8,71.894 629.5,151.994 675,151.994 "/>
<polygon fill="#E8D2C9" points="581.8,71.894 739.2,93.794 675,151.994 "/>
<polygon fill="#F1E5CC" points="739.2,93.794 730.9,175.294 675,151.994 "/>
<polygon fill="#F1DAC9" points="49.7,717.995 130.4,754.194 18.6,746.495 "/>
<polygon fill="#F2E5CC" points="130.4,754.194 51.8,782.594 18.6,746.495 "/>
<polygon fill="#F4E8DB" points="51.8,782.594 4.1,808.495 18.6,746.495 "/>
<polygon fill="#F6EDCF" points="1035.3,462.094 989.8,631.394 1037.4,816.194 "/>
<polygon fill="#E1D0CB" points="989.8,631.394 991.8,813.694 1037.4,816.194 "/>
<polygon fill="#E8DDD2" points="971.1,188.194 805.5,385.894 898.7,409.194 "/>
<polygon fill="#E5CECA" points="971.1,188.194 1035.3,462.094 898.7,409.194 "/>
<polygon fill="#CBC3C7" points="805.5,385.894 768.2,394.994 898.7,409.194 "/>
<polygon fill="#F3EBD8" points="768.2,394.994 867.6,591.394 898.7,409.194 "/>
<polygon fill="#D5CBCA" points="1035.3,462.094 867.6,591.394 898.7,409.194 "/>
<polygon fill="#E0CCC9" points="33.1,20.194 87,52.494 207.1,18.894 "/>
<polygon fill="#E0CCC9" points="0,2.094 484.5,25.394 207.1,18.894 "/>
<polygon fill="#D5CBCA" points="16.6,136.494 37.3,397.494 10.4,739.995 "/>
<polygon fill="#D6C7C8" points="37.3,397.494 70.4,503.495 10.4,739.995 "/>
<polygon fill="#D5CACA" points="70.4,503.495 72.5,520.294 10.4,739.995 "/>
<polygon fill="#DCDDDE" points="49.7,717.995 18.6,746.495 10.4,739.995 "/>
<polygon fill="#DCDDDE" points="18.6,746.495 4.1,808.495 10.4,739.995 "/>
<polygon fill="#F7F4DA" points="565.3,372.994 312.7,383.294 352,508.694 "/>
<polygon fill="#F7F5DA" points="312.7,383.294 124.2,442.794 352,508.694 "/>
<polygon fill="#F7F5DA" points="124.2,442.794 72.5,520.294 352,508.694 "/>
<polygon fill="#F5EACE" points="72.5,520.294 240.2,640.495 352,508.694 "/>
<polygon fill="#E8D0C9" points="548.7,539.694 447.3,686.995 352,508.694 "/>
<polygon fill="#F3DECB" points="447.3,686.995 376.9,689.594 352,508.694 "/>
<polygon fill="#D3C9CA" points="565.3,372.994 650.2,391.094 627.4,447.894 "/>
<polygon fill="#EDD7C9" points="565.3,372.994 352,508.694 627.4,447.894 "/>
<polygon fill="#CCC7C9" points="650.2,391.094 768.2,394.994 627.4,447.894 "/>
<polygon fill="#D5CACA" points="768.2,394.994 627.4,517.694 627.4,447.894 "/>
<polygon fill="#F0E2CD" points="352,508.694 548.7,539.694 627.4,447.894 "/>
<polygon fill="#DFCCC9" points="627.4,517.694 548.7,539.694 627.4,447.894 "/>
<polygon fill="#DFDACC" points="867.6,591.394 989.8,631.394 820,694.794 "/>
<polygon fill="#ECDDCB" points="867.6,591.394 712.3,648.194 820,694.794 "/>
<polygon fill="#E1D0CB" points="989.8,631.394 880,760.694 820,694.794 "/>
<polygon fill="#D5CACA" points="712.3,648.194 569.4,765.794 820,694.794 "/>
<polygon fill="#F7F1CF" points="880,760.694 834.5,796.894 820,694.794 "/>
<polygon fill="#F4E1CB" points="569.4,765.794 834.5,796.894 820,694.794 "/>
<polygon fill="#CFC5C7" points="16.6,136.494 87,164.894 138.7,157.194 "/>
<polygon fill="#D6C7C8" points="271.3,150.694 211.2,243.794 138.7,157.194 "/>
<polygon fill="#EED8C9" points="87,164.894 211.2,243.794 138.7,157.194 "/>
<polygon fill="#F1DAC9" points="207.1,18.894 271.3,150.694 138.7,157.194 "/>
<polygon fill="#F1E5CC" points="207.1,18.894 87,52.494 138.7,157.194 "/>
<polygon fill="#F7F5DA" points="87,52.494 16.6,136.494 138.7,157.194 "/>
<polygon fill="#F6ECD3" points="385.1,128.694 271.3,150.694 327.2,86.094 "/>
<polygon fill="#F5EACE" points="207.1,18.894 271.3,150.694 327.2,86.094 "/>
<polygon fill="#F1E9D2" points="207.1,18.894 436.9,30.494 327.2,86.094 "/>
<polygon fill="#F3EBD8" points="436.9,30.494 385.1,128.694 327.2,86.094 "/>
<polygon fill="#F7F3D7" points="72.5,520.294 240.2,640.495 45.6,677.995 "/>
<polygon fill="#E8D1C9" points="72.5,520.294 10.4,739.995 45.6,677.995 "/>
<polygon fill="#F2E5CC" points="240.2,640.495 130.4,754.194 45.6,677.995 "/>
<polygon fill="#EDD7C9" points="49.7,717.995 10.4,739.995 45.6,677.995 "/>
<polygon fill="#E9D1C9" points="49.7,717.995 130.4,754.194 45.6,677.995 "/>
<polygon fill="#DED1CA" points="807.5,170.094 971.1,188.194 896.6,158.494 "/>
<polygon fill="#E5CECA" points="985.6,176.594 971.1,188.194 896.6,158.494 "/>
<polygon fill="#E5D3C9" points="923.5,96.394 985.6,176.594 896.6,158.494 "/>
<polygon fill="#E5CFCA" points="923.5,96.394 807.5,110.694 896.6,158.494 "/>
<polygon fill="#E5D1C8" points="807.5,110.694 807.5,170.094 896.6,158.494 "/>
<polygon fill="#F6ECD3" points="352,508.694 240.2,640.495 265,655.995 "/>
<polygon fill="#E8D1C9" points="352,508.694 376.9,689.594 265,655.995 "/>
<polygon fill="#EEE0CC" points="240.2,640.495 130.4,754.194 265,655.995 "/>
<polygon fill="#F6EDCF" points="376.9,689.594 178.1,773.594 265,655.995 "/>
<polygon fill="#F5ECCE" points="130.4,754.194 178.1,773.594 265,655.995 "/>
</svg>
