<?xml version="1.0" encoding="utf-8"?>
<!-- Generator: Adobe Illustrator 15.0.0, SVG Export Plug-In  -->
<!DOCTYPE svg PUBLIC "-//W3C//DTD SVG 1.1//EN" "http://www.w3.org/Graphics/SVG/1.1/DTD/svg11.dtd" [
	<!ENTITY ns_flows "http://ns.adobe.com/Flows/1.0/">
]>
<svg version="1.1"
	 xmlns="http://www.w3.org/2000/svg" xmlns:xlink="http://www.w3.org/1999/xlink" xmlns:a="http://ns.adobe.com/AdobeSVGViewerExtensions/3.0/"
	 x="0px" y="0px" width="981px" height="758px" viewBox="16.307 22.5 981 758"
	 overflow="visible" enable-background="new 16.307 22.5 981 758" xml:space="preserve">
<defs>
</defs>
<rect fill="#165981" width="1035.9" height="810.699"/>
<polygon fill="#165981" points="881.5,26.1 809,110.1 922.9,80.3 "/>
<polygon fill="#11517C" points="583.3,71.3 386.6,128.1 477.7,194 "/>
<polygon fill="#1B5D81" points="583.3,71.3 631,151.4 477.7,194 "/>
<polygon fill="#0E4B78" points="448.8,686.4 570.9,765.2 481.9,814.3 "/>
<polygon fill="#093754" points="88.5,51.9 18.1,135.9 34.6,19.6 "/>
<polygon fill="#114C63" points="86.4,448.6 71.9,502.9 125.7,442.2 "/>
<polygon fill="#0D4979" points="922.9,80.3 809,110.1 925,95.8 "/>
<polygon fill="#093F75" points="1036.8,461.5 869.1,590.8 991.3,630.8 "/>
<polygon fill="#1A5D82" points="448.8,686.4 570.9,765.2 713.8,647.6 "/>
<polygon fill="#1F5F7B" points="252,311.6 448.8,332.3 465.3,274.2 "/>
<polygon fill="#396F88" points="465.3,274.2 448.8,332.3 566.8,372.4 "/>
<polygon fill="#1B5D81" points="486,24.8 583.3,71.3 759.4,26.1 "/>
<polygon fill="#2A6787" points="881.5,26.1 809,110.1 759.4,26.1 "/>
<polygon fill="#1B5D81" points="583.3,71.3 740.7,93.2 759.4,26.1 "/>
<polygon fill="#286384" points="740.7,93.2 809,110.1 759.4,26.1 "/>
<polygon fill="#316981" points="252,311.6 448.8,332.3 314.2,382.7 "/>
<polygon fill="#175A71" points="252,311.6 125.7,442.2 314.2,382.7 "/>
<polygon fill="#356C86" points="448.8,332.3 566.8,372.4 314.2,382.7 "/>
<polygon fill="#1F5B7E" points="972.6,187.6 1036.8,461.5 987.1,176 "/>
<polygon fill="#316A87" points="1026.5,88.1 1036.8,461.5 987.1,176 "/>
<polygon fill="#13567E" points="1026.5,88.1 925,95.8 987.1,176 "/>
<polygon fill="#0D4975" points="386.6,128.1 477.7,194 363.9,185 "/>
<polygon fill="#0E4B75" points="477.7,194 452.9,219.9 363.9,185 "/>
<polygon fill="#0F4C75" points="452.9,219.9 465.3,274.2 363.9,185 "/>
<polygon fill="#104D6E" points="212.7,243.2 252,311.6 363.9,185 "/>
<polygon fill="#104C6D" points="465.3,274.2 252,311.6 363.9,185 "/>
<polygon fill="#296888" points="769.7,394.4 869.1,590.8 628.9,517.1 "/>
<polygon fill="#115280" points="570.9,765.2 481.9,814.3 836,796.3 "/>
<polygon fill="#0A4276" points="448.8,686.4 481.9,814.3 378.4,689 "/>
<polygon fill="#0A3F6C" points="386.6,128.1 363.9,185 272.8,150.1 "/>
<polygon fill="#0C436A" points="363.9,185 212.7,243.2 272.8,150.1 "/>
<polygon fill="#2C6987" points="628.9,517.1 869.1,590.8 680.7,588.2 "/>
<polygon fill="#195F85" points="869.1,590.8 713.8,647.6 680.7,588.2 "/>
<polygon fill="#276787" points="713.8,647.6 448.8,686.4 680.7,588.2 "/>
<polygon fill="#0B3C56" points="18.1,135.9 88.5,164.3 38.8,396.9 "/>
<polygon fill="#0C3F5A" points="88.5,164.3 212.7,243.2 38.8,396.9 "/>
<polygon fill="#104C65" points="212.7,243.2 252,311.6 38.8,396.9 "/>
<polygon fill="#135267" points="252,311.6 125.7,442.2 38.8,396.9 "/>
<polygon fill="#104A60" points="125.7,442.2 86.4,448.6 38.8,396.9 "/>
<polygon fill="#104960" points="86.4,448.6 71.9,502.9 38.8,396.9 "/>
<polygon fill="#346E88" points="628.9,517.1 680.7,588.2 550.2,539.1 "/>
<polygon fill="#206184" points="680.7,588.2 448.8,686.4 550.2,539.1 "/>
<polygon fill="#1F5B7E" points="1036.8,4.1 1026.5,88.1 951.9,49.3 "/>
<polygon fill="#165981" points="881.5,26.1 922.9,80.3 951.9,49.3 "/>
<polygon fill="#316A87" points="900.2,2.8 1036.8,4.1 951.9,49.3 "/>
<polygon fill="#1B5D81" points="900.2,2.8 881.5,26.1 951.9,49.3 "/>
<polygon fill="#386F88" points="465.3,274.2 566.8,372.4 649.6,351.7 "/>
<polygon fill="#316C87" points="566.8,372.4 651.7,390.5 649.6,351.7 "/>
<polygon fill="#3B718B" points="807,385.3 769.7,394.4 649.6,351.7 "/>
<polygon fill="#326C87" points="651.7,390.5 769.7,394.4 649.6,351.7 "/>
<polygon fill="#114C63" points="125.7,442.2 71.9,502.9 74,519.7 "/>
<polygon fill="#022567" points="991.3,630.8 881.5,760.1 993.3,813.1 "/>
<polygon fill="#043372" points="881.5,760.1 836,796.3 993.3,813.1 "/>
<polygon fill="#256485" points="809,169.5 972.6,187.6 732.4,250.9 "/>
<polygon fill="#316A87" points="972.6,187.6 807,385.3 732.4,250.9 "/>
<polygon fill="#2F6A85" points="465.3,274.2 649.6,351.7 732.4,250.9 "/>
<polygon fill="#39718A" points="649.6,351.7 807,385.3 732.4,250.9 "/>
<polygon fill="#346D88" points="631,151.4 732.4,250.9 732.4,192.8 "/>
<polygon fill="#296988" points="809,169.5 732.4,250.9 732.4,192.8 "/>
<polygon fill="#316A87" points="951.9,49.3 922.9,80.3 937.4,86.8 "/>
<polygon fill="#1F5B7E" points="951.9,49.3 1026.5,88.1 937.4,86.8 "/>
<polygon fill="#165981" points="922.9,80.3 925,95.8 937.4,86.8 "/>
<polygon fill="#1B5D81" points="1026.5,88.1 925,95.8 937.4,86.8 "/>
<polygon fill="#13567E" points="486,24.8 583.3,71.3 438.4,29.9 "/>
<polygon fill="#13567E" points="583.3,71.3 386.6,128.1 438.4,29.9 "/>
<polygon fill="#2E6987" points="809,169.5 732.4,192.8 732.4,174.7 "/>
<polygon fill="#2E6987" points="740.7,93.2 809,110.1 732.4,174.7 "/>
<polygon fill="#1F6488" points="809,110.1 809,169.5 732.4,174.7 "/>
<polygon fill="#1C5D80" points="631,151.4 477.7,194 467.4,214.7 "/>
<polygon fill="#2A6685" points="631,151.4 732.4,250.9 467.4,214.7 "/>
<polygon fill="#115179" points="477.7,194 452.9,219.9 467.4,214.7 "/>
<polygon fill="#115179" points="452.9,219.9 465.3,274.2 467.4,214.7 "/>
<polygon fill="#256284" points="732.4,250.9 465.3,274.2 467.4,214.7 "/>
<polygon fill="#062F4F" points="131.9,753.6 179.6,773 53.3,782 "/>
<polygon fill="#03264F" points="179.6,773 204.4,804 53.3,782 "/>
<polygon fill="#02285C" points="378.4,689 179.6,773 312.1,802.7 "/>
<polygon fill="#032D65" points="378.4,689 481.9,814.3 312.1,802.7 "/>
<polygon fill="#073252" points="179.6,773 204.4,804 312.1,802.7 "/>
<polygon fill="#1B6186" points="631,151.4 732.4,192.8 676.5,151.4 "/>
<polygon fill="#286888" points="732.4,174.7 732.4,192.8 676.5,151.4 "/>
<polygon fill="#286888" points="583.3,71.3 631,151.4 676.5,151.4 "/>
<polygon fill="#1E6487" points="583.3,71.3 740.7,93.2 676.5,151.4 "/>
<polygon fill="#1B6186" points="740.7,93.2 732.4,174.7 676.5,151.4 "/>
<polygon fill="#073252" points="51.2,717.4 131.9,753.6 20.1,745.9 "/>
<polygon fill="#073252" points="131.9,753.6 53.3,782 20.1,745.9 "/>
<polygon fill="#02285C" points="53.3,782 5.6,807.9 20.1,745.9 "/>
<polygon fill="#1D5D83" points="1036.8,461.5 991.3,630.8 1038.9,815.6 "/>
<polygon fill="#022567" points="991.3,630.8 993.3,813.1 1038.9,815.6 "/>
<polygon fill="#2B6484" points="972.6,187.6 807,385.3 900.2,408.6 "/>
<polygon fill="#2A6281" points="972.6,187.6 1036.8,461.5 900.2,408.6 "/>
<polygon fill="#2E6987" points="807,385.3 769.7,394.4 900.2,408.6 "/>
<polygon fill="#1B5C83" points="769.7,394.4 869.1,590.8 900.2,408.6 "/>
<polygon fill="#1D5D83" points="1036.8,461.5 869.1,590.8 900.2,408.6 "/>
<polygon fill="#0A3A56" points="34.6,19.6 88.5,51.9 208.6,18.3 "/>
<polygon fill="#0E465D" points="18.1,135.9 38.8,396.9 11.9,739.4 "/>
<polygon fill="#0E465D" points="38.8,396.9 71.9,502.9 11.9,739.4 "/>
<polygon fill="#0B3D58" points="71.9,502.9 74,519.7 11.9,739.4 "/>
<polygon fill="#093F71" points="51.2,717.4 20.1,745.9 11.9,739.4 "/>
<polygon fill="#1A5C7C" points="566.8,372.4 314.2,382.7 353.5,508.1 "/>
<polygon fill="#0F496A" points="314.2,382.7 125.7,442.2 353.5,508.1 "/>
<polygon fill="#0E4764" points="125.7,442.2 74,519.7 353.5,508.1 "/>
<polygon fill="#07355A" points="74,519.7 241.7,639.9 353.5,508.1 "/>
<polygon fill="#0E4B78" points="550.2,539.1 448.8,686.4 353.5,508.1 "/>
<polygon fill="#093F71" points="448.8,686.4 378.4,689 353.5,508.1 "/>
<polygon fill="#397089" points="566.8,372.4 651.7,390.5 628.9,447.3 "/>
<polygon fill="#2A6684" points="566.8,372.4 353.5,508.1 628.9,447.3 "/>
<polygon fill="#376E88" points="651.7,390.5 769.7,394.4 628.9,447.3 "/>
<polygon fill="#3B718B" points="769.7,394.4 628.9,517.1 628.9,447.3 "/>
<polygon fill="#175A7E" points="353.5,508.1 550.2,539.1 628.9,447.3 "/>
<polygon fill="#356E88" points="628.9,517.1 550.2,539.1 628.9,447.3 "/>
<polygon fill="#0D4979" points="869.1,590.8 991.3,630.8 821.5,694.2 "/>
<polygon fill="#115280" points="869.1,590.8 713.8,647.6 821.5,694.2 "/>
<polygon fill="#043572" points="991.3,630.8 881.5,760.1 821.5,694.2 "/>
<polygon fill="#286687" points="713.8,647.6 570.9,765.2 821.5,694.2 "/>
<polygon fill="#0C487C" points="881.5,760.1 836,796.3 821.5,694.2 "/>
<polygon fill="#155A83" points="570.9,765.2 836,796.3 821.5,694.2 "/>
<polygon fill="#0C436A" points="18.1,135.9 88.5,164.3 140.2,156.6 "/>
<polygon fill="#07345B" points="272.8,150.1 212.7,243.2 140.2,156.6 "/>
<polygon fill="#093754" points="88.5,164.3 212.7,243.2 140.2,156.6 "/>
<polygon fill="#093A5F" points="208.6,18.3 272.8,150.1 140.2,156.6 "/>
<polygon fill="#08365A" points="208.6,18.3 88.5,51.9 140.2,156.6 "/>
<polygon fill="#0A3A56" points="88.5,51.9 18.1,135.9 140.2,156.6 "/>
<polygon fill="#0C436A" points="386.6,128.1 272.8,150.1 328.7,85.5 "/>
<polygon fill="#0E486E" points="208.6,18.3 272.8,150.1 328.7,85.5 "/>
<polygon fill="#125276" points="208.6,18.3 438.4,29.9 328.7,85.5 "/>
<polygon fill="#0A416F" points="438.4,29.9 386.6,128.1 328.7,85.5 "/>
<polygon fill="#093958" points="74,519.7 241.7,639.9 47.1,677.4 "/>
<polygon fill="#0B3D58" points="74,519.7 11.9,739.4 47.1,677.4 "/>
<polygon fill="#052C51" points="241.7,639.9 131.9,753.6 47.1,677.4 "/>
<polygon fill="#0B3E59" points="51.2,717.4 11.9,739.4 47.1,677.4 "/>
<polygon fill="#073453" points="51.2,717.4 131.9,753.6 47.1,677.4 "/>
<polygon fill="#0D4979" points="809,169.5 972.6,187.6 898.1,157.9 "/>
<polygon fill="#2A6281" points="987.1,176 972.6,187.6 898.1,157.9 "/>
<polygon fill="#1F5B7E" points="925,95.8 987.1,176 898.1,157.9 "/>
<polygon fill="#165981" points="925,95.8 809,110.1 898.1,157.9 "/>
<polygon fill="#286384" points="809,110.1 809,169.5 898.1,157.9 "/>
<polygon fill="#032853" points="353.5,508.1 241.7,639.9 266.5,655.4 "/>
<polygon fill="#093C68" points="353.5,508.1 378.4,689 266.5,655.4 "/>
<polygon fill="#042A52" points="241.7,639.9 131.9,753.6 266.5,655.4 "/>
<polygon fill="#042D5F" points="378.4,689 179.6,773 266.5,655.4 "/>
<polygon fill="#03264F" points="131.9,753.6 179.6,773 266.5,655.4 "/>
</svg>
