<?xml version="1.0" encoding="utf-8"?>
<!-- Generator: Adobe Illustrator 15.0.0, SVG Export Plug-In  -->
<!DOCTYPE svg PUBLIC "-//W3C//DTD SVG 1.1//EN" "http://www.w3.org/Graphics/SVG/1.1/DTD/svg11.dtd" [
	<!ENTITY ns_flows "http://ns.adobe.com/Flows/1.0/">
]>
<svg version="1.1"
	 xmlns="http://www.w3.org/2000/svg" xmlns:xlink="http://www.w3.org/1999/xlink" xmlns:a="http://ns.adobe.com/AdobeSVGViewerExtensions/3.0/"
	 x="0px" y="0px" width="643px" height="45px" viewBox="-37.238 -16.941 643 45"
	 overflow="visible" enable-background="new -37.238 -16.941 643 45" xml:space="preserve">
<defs>
</defs>
<path fill="#CCCCCC" d="M12.63,0.759c23.228,0,48.242,1.264,73.852,1.264C139.489,2.022,202.621,0,252.649,0
	c49.435,0,99.464,3.54,150.684,3.54c38.713,0,75.639-0.252,112.565-0.252c17.867,0,58.962-1.012,58.962,2.528
	c0,1.77-3.572,2.276-5.359,2.276c-9.529,0-21.441-1.518-33.353-1.518c-38.713,0-78.021,0.506-119.117,0.506
	c-59.559,0-118.521-2.781-178.08-2.781c-51.816,0-103.631,1.264-153.066,1.264C62.658,5.563,36.452,4.3,15.011,4.3
	c-4.168,0-7.147,0.758-10.124,0.758c-1.787,0-4.169,0-4.765-1.012C-1.068,1.517,6.675,0.759,12.63,0.759z"/>
</svg>
